<svg width="32" height="32" viewBox="0 0 70 85" fill="none" xmlns="http://www.w3.org/2000/svg">
<path d="M24.5099 18.134C25.0402 18.134 25.496 17.9382 25.8771 17.5466C26.2583 17.1549 26.4489 16.6867 26.4489 16.1418C26.4489 15.597 26.2583 15.1287 25.8771 14.7371C25.496 14.3455 25.0402 14.1496 24.5099 14.1496C23.9796 14.1496 23.5322 14.3455 23.1676 14.7371C22.803 15.1287 22.6207 15.597 22.6207 16.1418C22.6207 16.6867 22.803 17.1549 23.1676 17.5466C23.5322 17.9382 23.9796 18.134 24.5099 18.134ZM45.4901 18.134C46.0204 18.134 46.4678 17.9382 46.8324 17.5466C47.197 17.1549 47.3793 16.6867 47.3793 16.1418C47.3793 15.597 47.197 15.1287 46.8324 14.7371C46.4678 14.3455 46.0204 14.1496 45.4901 14.1496C44.9598 14.1496 44.504 14.3455 44.1229 14.7371C43.7417 15.1287 43.5511 15.597 43.5511 16.1418C43.5511 16.6867 43.7417 17.1549 44.1229 17.5466C44.504 17.9382 44.9598 18.134 45.4901 18.134ZM5.12074 27.5331C6.51278 27.5331 7.70597 28.0439 8.70028 29.0655C9.6946 30.0871 10.1918 31.3131 10.1918 32.7434V54.7085C10.1918 56.1729 9.70289 57.4159 8.72514 58.4375C7.7474 59.4591 6.54593 59.97 5.12074 59.97C3.69555 59.97 2.4858 59.4591 1.49148 58.4375C0.497159 57.4159 0 56.1729 0 54.7085V32.7434C0 31.3131 0.497159 30.0871 1.49148 29.0655C2.4858 28.0439 3.69555 27.5331 5.12074 27.5331ZM57.8196 28.5036V62.524C57.8196 64.0905 57.2893 65.4187 56.2287 66.5084C55.1681 67.5982 53.892 68.143 52.4006 68.143H48.6719V79.7386C48.6719 81.2029 48.1747 82.4459 47.1804 83.4676C46.1861 84.4892 44.9763 85 43.5511 85C42.1259 85 40.9162 84.4892 39.9219 83.4676C38.9276 82.4459 38.4304 81.2029 38.4304 79.7386V68.143H31.5696V79.7386C31.5696 81.2029 31.0724 82.4459 30.0781 83.4676C29.0838 84.4892 27.8741 85 26.4489 85C25.0568 85 23.8636 84.4892 22.8693 83.4676C21.875 82.4459 21.3778 81.2029 21.3778 79.7386L21.3281 68.143H17.6491C16.1245 68.143 14.8319 67.5982 13.7713 66.5084C12.7107 65.4187 12.1804 64.0905 12.1804 62.524V28.5036H57.8196ZM46.2855 7.81551C49.8319 9.6885 52.6657 12.3022 54.7869 15.6566C56.9081 19.0109 57.9688 22.6803 57.9688 26.6647H11.9815C11.9815 22.6803 13.0421 19.0109 15.1634 15.6566C17.2846 12.3022 20.1349 9.6885 23.7145 7.81551L20.1847 1.1238C19.9527 0.68109 20.0355 0.340545 20.4332 0.102163C20.8641 -0.102163 21.1955 0 21.4276 0.408654L25.0071 7.15144C28.1558 5.72115 31.4867 5.00601 35 5.00601C38.5133 5.00601 41.8442 5.72115 44.9929 7.15144L48.5724 0.408654C48.8045 0 49.1359 -0.102163 49.5668 0.102163C49.9645 0.340545 50.0473 0.68109 49.8153 1.1238L46.2855 7.81551ZM70 32.7434V54.7085C70 56.1729 69.5028 57.4159 68.5085 58.4375C67.5142 59.4591 66.3045 59.97 64.8793 59.97C63.4872 59.97 62.294 59.4591 61.2997 58.4375C60.3054 57.4159 59.8082 56.1729 59.8082 54.7085V32.7434C59.8082 31.279 60.3054 30.0446 61.2997 29.04C62.294 28.0354 63.4872 27.5331 64.8793 27.5331C66.3045 27.5331 67.5142 28.0354 68.5085 29.04C69.5028 30.0446 70 31.279 70 32.7434Z" fill="#a4c639"/>
</svg>
