<svg width="64" height="64" viewBox="0 0 64 64" fill="none" xmlns="http://www.w3.org/2000/svg">
<path d="M31.0016 4.98633L29.8493 10.7442C28.397 10.9659 26.9728 11.3431 25.6012 11.8692L21.734 7.47072L18.2691 9.47074L20.148 15.0255C19.0071 15.9488 17.9686 16.9918 17.0504 18.1368L11.4839 16.254L9.4839 19.7189L13.9019 23.6017C13.375 24.9675 12.9959 26.3857 12.771 27.8322L7.00146 28.9865V32.9865L12.7593 34.1389C12.981 35.5911 13.3582 37.0153 13.8843 38.387L9.4839 42.2542L11.4839 45.719L17.0406 43.8401C17.9638 44.9811 19.0069 46.0196 20.1519 46.9378L18.2691 52.5042L21.734 54.5043L25.6168 50.0863C26.9826 50.6132 28.4008 50.9923 29.8473 51.2171L31.0016 56.9867H35.0017L36.154 51.2288C37.6063 51.0071 39.0305 50.63 40.4021 50.1038L44.2693 54.5043L47.7342 52.5042L45.8553 46.9476C46.9962 46.0243 48.0347 44.9812 48.9529 43.8362L54.5194 45.719L56.5194 42.2542L52.1014 38.3713C52.6283 37.0056 53.0074 35.5873 53.2323 34.1408L59.0018 32.9865V28.9865L53.244 27.8342C53.0223 26.3819 52.6451 24.9577 52.119 23.5861L56.5194 19.7189L54.5194 16.254L48.9627 18.133C48.0395 16.992 46.9964 15.9534 45.8514 15.0352L47.7342 9.47074L44.2693 7.47072L40.3884 11.8868C39.0221 11.3597 37.6031 10.9806 36.156 10.7559L35.0017 4.98633H31.0016Z" stroke="black" stroke-width="2.00001" stroke-linecap="round" stroke-linejoin="round"/>
<path d="M28.3279 45.2484L27.4147 44.916M32.5158 45.9867H33.4877H32.5158ZM32.5158 15.9863H33.4877H32.5158ZM37.6754 45.2483L38.5887 44.9159L37.6754 45.2483ZM27.4147 17.0571L28.328 16.7247L27.4147 17.0571ZM42.2714 42.7896L43.0159 42.165L42.2714 42.7896ZM22.9875 19.8081L23.7321 19.1834L22.9875 19.8081ZM45.7492 38.9074L46.2352 38.0658L45.7492 38.9074ZM19.7682 23.9073L20.2542 23.0656L19.7682 23.9073ZM47.6896 34.0699L47.8583 33.1127L47.6896 34.0699ZM18.145 28.8603L18.3138 27.9032L18.145 28.8603ZM47.8583 28.8603L47.6896 27.9032L47.8583 28.8603ZM18.3138 34.0699L18.145 33.1128L18.3138 34.0699ZM46.2352 23.9073L45.7492 23.0656L46.2352 23.9073ZM20.2541 38.9075L19.7682 38.0658L20.2541 38.9075ZM43.0158 19.8082L42.2713 19.1835L43.0158 19.8082ZM23.732 42.7897L22.9875 42.165L23.732 42.7897ZM38.5887 17.0573L37.6754 16.7249L38.5887 17.0573Z" stroke="black" stroke-width="2.00001" stroke-linecap="round" stroke-linejoin="round"/>
<path d="M31.2274 32.76C30.2511 31.7836 30.2511 30.2007 31.2274 29.2244C32.2037 28.2481 33.7867 28.2481 34.763 29.2244C35.7393 30.2007 35.7393 31.7836 34.763 32.76C33.7867 33.7363 32.2037 33.7363 31.2274 32.76Z" stroke="black" stroke-width="2.00001" stroke-linecap="round" stroke-linejoin="round"/>
<path d="M35.1328 28.8464L40.0627 23.9165" stroke="black" stroke-width="2.00001" stroke-linecap="round" stroke-linejoin="round"/>
</svg>
