<svg width="35" height="24" viewBox="0 0 35 24" fill="none" xmlns="http://www.w3.org/2000/svg">
<g clip-path="url(#clip0_1249_1244)">
<path d="M34.9591 11.2352H34.9041C35.1961 11.4912 35.1231 11.6738 34.6851 11.7832L29.9191 13.0422L34.2451 18.9042C34.3911 19.1235 34.4278 19.2795 34.3551 19.3722C34.198 19.5178 34.0166 19.6349 33.8191 19.7182L33.8071 19.7232L28.2201 21.7532C24.6775 22.9952 22.7418 23.6712 22.4131 23.7812H22.3581C22.0639 23.9262 21.7402 24.0012 21.4121 24.0002H21.3711H21.3731C21.2034 23.9629 21.0432 23.8906 20.9029 23.788C20.7626 23.6854 20.6452 23.5547 20.5581 23.4042L20.5551 23.3982C20.1898 22.9235 18.8568 20.6045 16.5561 16.4412C12.6461 17.4632 10.1981 18.0842 9.21214 18.3042C8.86541 18.4348 8.4811 18.423 8.14299 18.2715C7.80488 18.12 7.54038 17.8409 7.40715 17.4952L7.40415 17.4852L5.97915 14.3582C2.29048 6.43284 0.354812 2.23284 0.172145 1.75817C-0.156521 1.0275 -0.0105214 0.625505 0.610145 0.552171L1.32215 0.497171C5.12415 0.205838 7.24248 0.0418381 7.67715 0.00517143C7.91458 -0.0126404 8.15284 0.026441 8.37214 0.119171L8.36215 0.115171C8.53015 0.230171 8.66714 0.377171 8.76915 0.547171L8.77215 0.553171L17.2641 14.7432L27.8921 12.2232L24.3841 7.23717C24.1281 6.87184 24.2925 6.65284 24.8771 6.58017L29.8081 5.76117C29.9927 5.72013 30.1849 5.73015 30.3641 5.79017L30.3561 5.78817C30.5761 5.90317 30.7601 6.06117 30.9011 6.25217L30.9041 6.25617L33.0401 8.88617C34.2088 10.3428 34.8481 11.1262 34.9581 11.2362L34.9591 11.2352ZM15.6201 15.1792C15.8028 15.1425 15.8211 15.0328 15.6751 14.8502L7.72615 1.09917C7.7044 1.06119 7.67191 1.03049 7.63277 1.01092C7.59363 0.991347 7.54958 0.983781 7.50615 0.989171H7.50715L1.70015 1.48217C1.66348 1.48217 1.64515 1.51884 1.64515 1.59217C1.64615 1.67217 1.66615 1.74717 1.70115 1.81317L1.70015 1.81017L8.87714 16.6022C8.91381 16.6755 8.95048 16.7122 8.98715 16.7122H9.26114L13.1501 15.7772C14.7568 15.3778 15.5801 15.1782 15.6201 15.1782V15.1792ZM32.3841 18.3022L28.8761 13.4812C28.8328 13.4007 28.7672 13.3344 28.6871 13.2902L28.6851 13.2892C28.6013 13.2717 28.514 13.2815 28.4361 13.3172L28.4391 13.3162L18.0321 16.0562L21.4841 21.8632C21.5941 22.0458 21.6855 22.1465 21.7581 22.1652C21.8513 22.1821 21.9473 22.1724 22.0351 22.1372L22.0321 22.1382L32.2761 18.6302C32.4221 18.5935 32.4951 18.5568 32.4951 18.5202C32.4904 18.4701 32.4713 18.4226 32.4401 18.3832V18.3842L32.3841 18.3022ZM33.0411 10.9612C33.3331 10.8878 33.4428 10.7965 33.3701 10.6872C31.5775 8.45917 30.5731 7.19917 30.3571 6.90717C30.3194 6.82601 30.2552 6.7601 30.1751 6.7203C30.0949 6.68049 30.0036 6.66916 29.9161 6.68817H29.9191L25.9751 7.40017C25.8291 7.43684 25.8108 7.52817 25.9201 7.67417L29.0431 11.9472C30.3938 11.6185 31.7268 11.2895 33.0421 10.9602L33.0411 10.9612Z" fill="#FF3400"/>
</g>
<defs>
<clipPath id="clip0_1249_1244">
<rect width="35" height="24" fill="white"/>
</clipPath>
</defs>
</svg>
