<svg width="32" height="32" viewBox="0 0 32 32" fill="none" xmlns="http://www.w3.org/2000/svg">
<g clip-path="url(#clip0_1250_2277)">
<path d="M31.2031 7.16057L28.7281 9.63557L23.0711 3.97957L25.5461 1.50357C25.6371 1.40927 25.6875 1.28297 25.6864 1.15187C25.6853 1.02078 25.6327 0.895369 25.54 0.802665C25.4473 0.709961 25.3219 0.657377 25.1908 0.656238C25.0597 0.655098 24.9334 0.705496 24.8391 0.796575L24.4861 1.14957L19.1831 6.45357C19.0893 6.54734 19.0367 6.67449 19.0367 6.80707C19.0367 6.93966 19.0893 7.06681 19.1831 7.16057L19.5371 7.51457L18.8071 8.24457L18.3401 8.70957L16.5121 8.10057C16.4239 8.0714 16.3293 8.06727 16.2389 8.08863C16.1486 8.10999 16.0659 8.15601 16.0001 8.22157L15.6461 7.86757C15.424 7.65246 15.1422 7.50933 14.8375 7.45688C14.5327 7.40443 14.2193 7.4451 13.9381 7.57357L13.1711 6.80657L13.5241 6.45357C13.6178 6.35981 13.6705 6.23266 13.6705 6.10007C13.6705 5.96749 13.6178 5.84034 13.5241 5.74657L8.22206 0.442575L7.86806 0.0895747C7.77376 -0.00150435 7.64746 -0.0519016 7.51636 -0.0507623C7.38526 -0.0496231 7.25986 0.00296132 7.16715 0.0956654C7.07445 0.188369 7.02186 0.313776 7.02073 0.444874C7.01959 0.575972 7.06998 0.702274 7.16106 0.796575L9.63606 3.27257L3.97906 8.92857L1.50406 6.45357C1.40976 6.3625 1.28346 6.3121 1.15236 6.31324C1.02126 6.31438 0.895858 6.36696 0.803154 6.45967C0.71045 6.55237 0.657865 6.67778 0.656726 6.80887C0.655587 6.93997 0.705984 7.06627 0.797063 7.16057L1.15106 7.51457L6.45406 12.8186C6.50051 12.8651 6.55568 12.9021 6.61643 12.9273C6.67717 12.9525 6.7423 12.9655 6.80806 12.9655C6.87383 12.9655 6.93895 12.9525 6.9997 12.9273C7.06044 12.9021 7.11562 12.8651 7.16206 12.8186L7.51606 12.4646L8.57706 13.5256H8.57806L8.71006 13.6596L8.10106 15.4876C8.07173 15.5755 8.06742 15.6699 8.08862 15.7601C8.10981 15.8503 8.15566 15.9329 8.22106 15.9986L7.86706 16.3526C7.64828 16.5722 7.50278 16.8542 7.4505 17.1598C7.39823 17.4654 7.44173 17.7797 7.57506 18.0596L6.80706 18.8276L6.45306 18.4736C6.35759 18.3831 6.23108 18.3327 6.09956 18.3327C5.96805 18.3327 5.84154 18.3831 5.74606 18.4736L0.443063 23.7776L0.090063 24.1316C-0.00101607 24.2259 -0.0514133 24.3522 -0.0502741 24.4833C-0.0491349 24.6144 0.0034496 24.7398 0.0961537 24.8325C0.188858 24.9252 0.314264 24.9778 0.445362 24.9789C0.576461 24.9801 0.702762 24.9297 0.797063 24.8386L3.27206 22.3636L8.92906 28.0196L6.45406 30.4956C6.40764 30.5421 6.37083 30.5972 6.34573 30.658C6.32063 30.7187 6.30774 30.7837 6.30779 30.8494C6.30783 30.9151 6.32082 30.9802 6.346 31.0408C6.37119 31.1015 6.40808 31.1567 6.45456 31.2031C6.50105 31.2495 6.55623 31.2863 6.61694 31.3114C6.67766 31.3365 6.74272 31.3494 6.80842 31.3494C6.87411 31.3493 6.93916 31.3363 6.99984 31.3111C7.06052 31.286 7.11564 31.2491 7.16206 31.2026L7.51506 30.8496L12.8181 25.5456C12.9118 25.4518 12.9645 25.3247 12.9645 25.1921C12.9645 25.0595 12.9118 24.9323 12.8181 24.8386L12.4641 24.4846L13.1941 23.7546L13.6591 23.2896L15.4871 23.8986C15.5753 23.9273 15.6697 23.9312 15.76 23.9098C15.8503 23.8885 15.933 23.8427 15.9991 23.7776L16.3531 24.1316C16.5753 24.3464 16.8571 24.4894 17.1617 24.5419C17.4664 24.5943 17.7798 24.5538 18.0611 24.4256L18.8281 25.1926L18.4751 25.5456C18.3813 25.6393 18.3287 25.7665 18.3287 25.8991C18.3287 26.0317 18.3813 26.1588 18.4751 26.2526L23.7781 31.5566L24.1311 31.9096C24.1774 31.9564 24.2325 31.9935 24.2933 32.0189C24.354 32.0443 24.4192 32.0573 24.4851 32.0573C24.5509 32.0573 24.6161 32.0443 24.6769 32.0189C24.7376 31.9935 24.7928 31.9564 24.8391 31.9096C24.9328 31.8158 24.9855 31.6887 24.9855 31.5561C24.9855 31.4235 24.9328 31.2963 24.8391 31.2026L22.3641 28.7266L28.0211 23.0706L30.4961 25.5456C30.5904 25.6367 30.7167 25.687 30.8478 25.6859C30.9789 25.6848 31.1043 25.6322 31.197 25.5395C31.2897 25.4468 31.3423 25.3214 31.3434 25.1903C31.3445 25.0592 31.2941 24.9329 31.2031 24.8386L30.8491 24.4846L25.5461 19.1806C25.4506 19.0901 25.3241 19.0397 25.1926 19.0397C25.061 19.0397 24.9345 19.0901 24.8391 19.1806L24.4851 19.5346L23.4241 18.4736H23.4231L23.2901 18.3396L23.8991 16.5116C23.9284 16.4236 23.9327 16.3293 23.9115 16.2391C23.8903 16.1488 23.8445 16.0663 23.7791 16.0006L24.1331 15.6466C24.5931 15.1856 24.6911 14.4976 24.4251 13.9396L25.1931 13.1716L25.5471 13.5256C25.5935 13.5721 25.6487 13.6091 25.7094 13.6343C25.7702 13.6595 25.8353 13.6725 25.9011 13.6725C25.9668 13.6725 26.032 13.6595 26.0927 13.6343C26.1534 13.6091 26.2086 13.5721 26.2551 13.5256L31.5581 8.22157L31.9121 7.86757C31.9585 7.82102 31.9953 7.76578 32.0204 7.705C32.0454 7.64423 32.0583 7.57911 32.0582 7.51337C32.0581 7.44762 32.0451 7.38254 32.0198 7.32184C31.9946 7.26113 31.9576 7.206 31.9111 7.15957C31.8645 7.11315 31.8093 7.07635 31.7485 7.05128C31.6877 7.02621 31.6226 7.01335 31.5569 7.01344C31.4911 7.01354 31.426 7.02658 31.3653 7.05182C31.3046 7.07707 31.2495 7.11402 31.2031 7.16057ZM4.68606 9.63557L10.3431 3.97857L12.4641 6.09957L12.1111 6.45257L9.63606 8.92857L6.80806 11.7576L4.68606 9.63557ZM8.22206 11.7576L10.3431 9.63557L12.4641 7.51357L13.5251 8.57358C13.6207 8.66409 13.7474 8.71453 13.8791 8.71453C14.0107 8.71453 14.1374 8.66409 14.2331 8.57358C14.3283 8.48267 14.4549 8.43196 14.5866 8.43196C14.7182 8.43196 14.8448 8.48267 14.9401 8.57358L15.2941 8.92758L14.2331 9.98857L9.36706 14.8546L9.75706 13.6836C9.78647 13.5954 9.79072 13.5008 9.76935 13.4104C9.74797 13.3199 9.70182 13.2372 9.63606 13.1716L8.95206 12.4876L8.22206 11.7576ZM9.63606 27.3136L3.97906 21.6566L6.10106 19.5346L8.92906 22.3636L11.4041 24.8386L11.7571 25.1916L9.63606 27.3136ZM15.5111 22.8526L13.6831 22.2436C13.5949 22.2142 13.5003 22.2099 13.4099 22.2313C13.3194 22.2527 13.2367 22.2988 13.1711 22.3646L12.8171 22.7186L12.4871 23.0486L11.7571 23.7786L9.63606 21.6566L7.51506 19.5346L8.57606 18.4736C8.77106 18.2786 8.77106 17.9616 8.57606 17.7666C8.38106 17.5716 8.38106 17.2546 8.57606 17.0596L14.9411 10.6956C15.0363 10.6047 15.1629 10.554 15.2946 10.554C15.4262 10.554 15.5528 10.6047 15.6481 10.6956C15.7416 10.7896 15.7941 10.9169 15.7941 11.0496C15.7941 11.1822 15.7416 11.3095 15.6481 11.4036L14.2341 12.8176C14.143 12.9119 14.0926 13.0382 14.0937 13.1693C14.0949 13.3004 14.1474 13.4258 14.2402 13.5185C14.3329 13.6112 14.4583 13.6638 14.5894 13.6649C14.7205 13.6661 14.8468 13.6157 14.9411 13.5246L16.3551 12.1106C16.4506 12.0198 16.5773 11.9692 16.7091 11.9692C16.8408 11.9692 16.9675 12.0198 17.0631 12.1106C17.1096 12.1569 17.1465 12.212 17.1717 12.2727C17.1969 12.3334 17.2099 12.3984 17.2099 12.4641C17.2099 12.5298 17.1969 12.5948 17.1717 12.6555C17.1465 12.7161 17.1096 12.7712 17.0631 12.8176L15.6491 14.2316C15.5553 14.3255 15.5027 14.4527 15.5028 14.5854C15.5029 14.7181 15.5557 14.8453 15.6496 14.9391C15.7434 15.0328 15.8707 15.0854 16.0034 15.0854C16.1361 15.0853 16.2633 15.0325 16.3571 14.9386L17.7711 13.5246C17.8654 13.4335 17.9917 13.3831 18.1228 13.3842C18.2539 13.3854 18.3793 13.438 18.472 13.5307C18.5647 13.6234 18.6173 13.7488 18.6184 13.8799C18.6195 14.011 18.5691 14.1373 18.4781 14.2316L17.0631 15.6456C16.9693 15.7395 16.9167 15.8667 16.9168 15.9994C16.9169 16.1321 16.9697 16.2593 17.0636 16.3531C17.1574 16.4468 17.2847 16.4994 17.4174 16.4994C17.5501 16.4993 17.6773 16.4465 17.7711 16.3526L19.1861 14.9386C19.2813 14.8477 19.4079 14.797 19.5396 14.797C19.6712 14.797 19.7978 14.8477 19.8931 14.9386C19.9868 15.0323 20.0395 15.1595 20.0395 15.2921C20.0395 15.4247 19.9868 15.5518 19.8931 15.6456L16.9291 18.6096L16.9251 18.6136L14.9941 20.5446C14.903 20.6389 14.8526 20.7652 14.8537 20.8963C14.8549 21.0274 14.9074 21.1528 15.0002 21.2455C15.0929 21.3382 15.2183 21.3908 15.3494 21.3919C15.4805 21.3931 15.6068 21.3427 15.7011 21.2516L16.0011 20.9516L16.0041 20.9496L17.6351 19.3186C17.8375 19.117 18.1038 18.9921 18.3883 18.9655C18.6728 18.9388 18.9577 19.012 19.1941 19.1726L15.5111 22.8526ZM27.3141 22.3636L21.6571 28.0206L19.5361 25.8996L19.8891 25.5466L22.3641 23.0716L25.1921 20.2426L27.3141 22.3636ZM23.7781 20.2416L21.6571 22.3636L19.5361 24.4856L18.4751 23.4256C18.3793 23.3353 18.2527 23.285 18.1211 23.285C17.9895 23.285 17.8628 23.3353 17.7671 23.4256C17.6718 23.5165 17.5452 23.5672 17.4136 23.5672C17.2819 23.5672 17.1553 23.5165 17.0601 23.4256L16.7061 23.0716L20.2651 19.5116C20.3219 19.4524 20.3629 19.3798 20.3841 19.3006C20.4634 19.2796 20.5361 19.2386 20.5951 19.1816L22.6331 17.1446L22.2421 18.3166C22.2127 18.4047 22.2084 18.4993 22.2298 18.5898C22.2512 18.6802 22.2973 18.7629 22.3631 18.8286L23.0471 19.5126L23.7781 20.2416ZM24.4851 12.4646L23.4241 13.5256C23.2291 13.7206 23.2291 14.0376 23.4241 14.2326C23.6191 14.4276 23.6191 14.7446 23.4241 14.9396L19.8951 18.4676C19.6187 18.2399 19.2914 18.0824 18.9411 18.0086L20.5961 16.3536C20.877 16.0722 21.0348 15.6907 21.0348 15.2931C21.0348 14.8954 20.877 14.514 20.5961 14.2326C20.3298 13.9774 19.9778 13.8308 19.6091 13.8216C19.5987 13.4453 19.4461 13.0869 19.1821 12.8186C18.9189 12.56 18.5687 12.4088 18.2001 12.3946C18.1853 12.0221 18.0311 11.6687 17.7681 11.4046C17.5018 11.1494 17.1498 11.0028 16.7811 10.9936C16.771 10.6167 16.618 10.2578 16.3531 9.98957C16.2282 9.8716 16.0828 9.77739 15.9241 9.71157L16.4881 9.14757L18.3161 9.75657C18.4042 9.78598 18.4988 9.79023 18.5893 9.76886C18.6797 9.74749 18.7624 9.70133 18.8281 9.63557L19.1821 9.28157L19.5121 8.95157L20.2421 8.22157L22.3631 10.3436L24.4851 12.4646ZM25.8991 12.4646L23.0711 9.63557L20.5961 7.16057L20.2431 6.80757L22.3641 4.68657L28.0211 10.3436L25.8991 12.4646Z" fill="black"/>
<path d="M26.2535 10.6963C26.4488 10.501 26.4488 10.1845 26.2535 9.9892C26.0583 9.79394 25.7417 9.79395 25.5464 9.98921C25.3512 10.1845 25.3512 10.5011 25.5464 10.6963C25.7417 10.8916 26.0583 10.8916 26.2535 10.6963Z" fill="black"/>
<path d="M6.45373 22.0108C6.64899 21.8155 6.64899 21.4989 6.45372 21.3037C6.25845 21.1084 5.94187 21.1084 5.74661 21.3037C5.55135 21.4989 5.55136 21.8155 5.74663 22.0108C5.94189 22.206 6.25847 22.206 6.45373 22.0108Z" fill="black"/>
<path d="M22.0099 26.2529C22.2051 26.0577 22.2051 25.7411 22.0099 25.5458C21.8146 25.3506 21.498 25.3506 21.3028 25.5459C21.1075 25.7411 21.1075 26.0577 21.3028 26.253C21.498 26.4482 21.8146 26.4482 22.0099 26.2529Z" fill="black"/>
<path d="M10.6969 6.45412C10.8922 6.25886 10.8921 5.94227 10.6969 5.74701C10.5016 5.55176 10.185 5.55176 9.98978 5.74703C9.79452 5.94229 9.79452 6.25887 9.98979 6.45413C10.1851 6.64939 10.5016 6.64939 10.6969 6.45412Z" fill="black"/>
</g>
<defs>
<clipPath id="clip0_1250_2277">
<rect width="32" height="32" fill="white"/>
</clipPath>
</defs>
</svg>
