<svg width="32" height="32" viewBox="0 0 32 32" fill="none" xmlns="http://www.w3.org/2000/svg">
<path d="M25.2659 15.3059C25.2659 13.6099 24.6559 12.4359 24.1339 11.5219L23.9739 11.2619C23.3399 10.2419 22.7859 9.34594 22.7859 8.30194C22.7859 7.04194 23.7419 5.86594 25.0899 5.86594C25.1299 5.86594 25.1679 5.86994 25.2059 5.87194L25.2679 5.87794C22.7403 3.55622 19.4321 2.26976 15.9999 2.27394C13.7253 2.27277 11.4861 2.83758 9.48408 3.91748C7.4821 4.99737 5.78027 6.55842 4.53194 8.45994C4.85194 8.46994 5.15794 8.47794 5.41594 8.47794C6.84994 8.47794 9.07194 8.30394 9.07194 8.30394C9.81194 8.25994 9.89994 9.34594 9.15994 9.43394C9.15994 9.43394 8.41794 9.52194 7.58994 9.56394L12.5899 24.4319L15.5899 15.4199L13.4499 9.56194C12.7119 9.51794 12.0119 9.43194 12.0119 9.43194C11.2719 9.38794 11.3599 8.25594 12.0979 8.29994C12.0979 8.29994 14.3659 8.47394 15.7139 8.47394C17.1499 8.47394 19.3739 8.29994 19.3739 8.29994C20.1139 8.25594 20.1999 9.34394 19.4599 9.43194C19.4599 9.43194 18.7159 9.51794 17.8899 9.56194L22.8499 24.3159L24.2179 19.7419L24.3259 19.3959C24.8659 17.6759 25.2639 16.4059 25.2639 15.3039L25.2659 15.3059ZM2.27394 15.9999C2.2738 18.5774 2.99929 21.1029 4.3674 23.2873C5.7355 25.4718 7.69093 27.2269 10.0099 28.3519L3.45994 10.4119C2.6756 12.1703 2.27145 14.0745 2.27394 15.9999Z" fill="#00749A"/>
<path d="M12.1221 29.1661L16.2421 17.2001L20.4601 28.7601C20.4881 28.8261 20.5201 28.8881 20.5581 28.9481C17.839 29.906 14.887 29.9823 12.1221 29.1661ZM28.0421 9.41406C28.1021 9.85206 28.1361 10.3201 28.1361 10.8261C28.1361 12.2181 27.8761 13.7841 27.0921 15.7421L22.9001 27.8621C25.9935 26.0648 28.2625 23.1303 29.2234 19.6841C30.1844 16.2379 29.7612 12.5527 28.0441 9.41406H28.0421Z" fill="#00749A"/>
<path fill-rule="evenodd" clip-rule="evenodd" d="M0 16C0 7.178 7.178 0 16 0C24.82 0 32 7.178 32 16C32 24.822 24.82 32 16 32C7.178 32 0 24.822 0 16ZM0.734 16C0.734 24.418 7.582 31.266 16 31.266C24.416 31.266 31.264 24.418 31.264 16C31.264 7.58 24.416 0.734 16 0.734C7.58 0.734 0.734 7.58 0.734 16Z" fill="#00749A"/>
</svg>
